<svg width="785" height="584" viewBox="0 0 785 584" fill="none" xmlns="http://www.w3.org/2000/svg">
<path d="M0.172955 256.279C17.1068 255.587 29.5481 251.959 37.4966 245.393C45.4452 238.481 49.4194 228.804 49.4194 216.363C49.4194 207.032 47.6915 188.543 44.2356 160.896C43.89 158.131 42.8532 149.319 41.1253 134.458C39.3974 119.252 38.5334 105.602 38.5334 93.5061C38.5334 64.1309 47.5187 41.322 65.4894 25.0793C83.46 8.49106 107.478 0.19692 137.545 0.19692H174.868V72.7707H154.651C143.593 72.7707 135.644 75.1898 130.806 80.0281C125.968 84.8663 123.548 92.2965 123.548 102.319C123.548 109.922 124.931 127.201 127.695 154.157C130.806 187.679 132.361 209.624 132.361 219.992C132.361 238.999 127.695 254.724 118.365 267.165C109.379 279.606 95.5556 287.555 76.8938 291.01V292.047C95.5556 295.849 109.379 303.97 118.365 316.411C127.695 328.507 132.361 344.231 132.361 363.584C132.361 373.952 130.806 395.897 127.695 429.419C124.931 455.684 123.548 472.79 123.548 480.739C123.548 490.761 125.968 498.191 130.806 503.03C135.644 508.213 143.593 510.805 154.651 510.805H174.868V583.379H137.545C107.478 583.379 83.46 575.085 65.4894 558.497C47.5187 542.254 38.5334 519.272 38.5334 489.552C38.5334 477.456 39.3974 463.978 41.1253 449.118C42.8532 433.912 43.89 424.926 44.2356 422.162C47.6915 394.514 49.4194 376.025 49.4194 366.694C49.4194 354.944 45.4452 345.614 37.4966 338.702C29.5481 331.444 17.1068 327.47 0.172955 326.779V256.279ZM784.638 326.779C767.704 327.47 755.263 331.444 747.314 338.702C739.366 345.614 735.391 354.944 735.391 366.694C735.391 376.025 737.119 394.514 740.575 422.162C740.921 424.926 741.958 433.912 743.686 449.118C745.414 463.978 746.278 477.456 746.278 489.552C746.278 519.272 737.292 542.254 719.322 558.497C701.351 575.085 677.332 583.379 647.266 583.379H609.942V510.805H630.159C641.218 510.805 649.167 508.213 654.005 503.03C658.843 498.191 661.263 490.761 661.263 480.739C661.263 472.79 659.88 455.684 657.115 429.419C654.005 395.897 652.45 373.952 652.45 363.584C652.45 344.231 656.943 328.507 665.928 316.411C675.259 303.97 689.255 295.849 707.917 292.047V291.01C689.255 287.555 675.259 279.606 665.928 267.165C656.943 254.724 652.45 238.999 652.45 219.992C652.45 209.624 654.005 187.679 657.115 154.157C659.88 127.201 661.263 109.922 661.263 102.319C661.263 92.2965 658.843 84.8663 654.005 80.0281C649.167 75.1898 641.218 72.7707 630.159 72.7707H609.942V0.19692H647.266C677.332 0.19692 701.351 8.49106 719.322 25.0793C737.292 41.322 746.278 64.1309 746.278 93.5061C746.278 105.602 745.414 119.252 743.686 134.458C741.958 149.319 740.921 158.131 740.575 160.896C737.119 188.543 735.391 207.032 735.391 216.363C735.391 228.804 739.366 238.481 747.314 245.393C755.263 251.959 767.704 255.587 784.638 256.279V326.779Z" fill="#03BCF4"/>
<path d="M454.808 474L332.469 313.301V474H243.826V110.094H332.469V269.757L453.771 110.094H557.966L416.966 288.418L563.15 474H454.808Z" fill="white"/>
</svg>
